<svg width="24" height="24" viewBox="0 0 24 24" fill="none" xmlns="http://www.w3.org/2000/svg">
<path d="M12 7.6875L10.4062 6.09375L9.84375 5.53125C8.8125 4.54688 7.35938 4.07812 5.95312 4.3125C3.79688 4.6875 2.25 6.51562 2.25 8.71875V8.95312C2.25 10.0781 2.625 11.1562 3.32812 12H5.71875C6.04688 12 6.28125 11.8594 6.42188 11.5781L7.92188 7.96875C8.01562 7.6875 8.29688 7.54688 8.57812 7.54688C8.90625 7.54688 9.14062 7.6875 9.28125 7.96875L12 14.0156L14.2969 9.42188C14.4375 9.1875 14.6719 9.04688 14.9531 9.04688C15.2344 9.04688 15.5156 9.1875 15.6562 9.42188L16.7344 11.625C16.875 11.8594 17.1094 12 17.3906 12H20.625C21.3281 11.1562 21.7031 10.0781 21.7031 8.95312V8.71875C21.7031 6.51562 20.1562 4.6875 18 4.3125C16.5938 4.07812 15.1406 4.54688 14.1094 5.53125L13.5469 6.09375L12 7.6875ZM21.375 13.5H19.0781H17.3906C16.5469 13.5 15.7969 13.0312 15.375 12.2812L15 11.4375L12.6562 16.125C12.5156 16.3594 12.2344 16.5469 11.9531 16.5C11.6719 16.5 11.4375 16.3594 11.2969 16.0781L8.625 10.1719L7.82812 12.1406C7.45312 12.9844 6.65625 13.5 5.71875 13.5H4.875H2.625H1.64062C0.5625 12.2812 0 10.6406 0 8.95312V8.71875C0 5.4375 2.34375 2.625 5.57812 2.10938C7.73438 1.73438 9.89062 2.4375 11.4375 3.9375L12 4.5L12.5625 3.9375C14.0625 2.4375 16.2656 1.73438 18.375 2.10938C21.6094 2.625 24 5.4375 24 8.71875V8.95312C24 10.6406 23.3906 12.2344 22.3125 13.5H21.375ZM3.1875 15H6.46875L12 20.1562L17.4844 15H20.7656L13.2656 22.0312C12.9375 22.3594 12.4688 22.5 12 22.5C11.4844 22.5 11.0156 22.3594 10.6875 22.0312L3.1875 15Z" fill="currentColor"/>
</svg>
